<mxfile host="65bd71144e">
    <diagram id="2b_7VTNV8yJdHPreMBgP" name="Page-1">
        <mxGraphModel dx="786" dy="530" grid="1" gridSize="10" guides="1" tooltips="1" connect="1" arrows="1" fold="1" page="1" pageScale="1" pageWidth="827" pageHeight="1169" math="0" shadow="0">
            <root>
                <mxCell id="0"/>
                <mxCell id="1" parent="0"/>
                <mxCell id="3" value="&lt;span&gt;Container&lt;/span&gt;" style="rounded=0;whiteSpace=wrap;html=1;fillColor=default;labelPosition=center;verticalLabelPosition=top;align=center;verticalAlign=bottom;" vertex="1" parent="1">
                    <mxGeometry x="80" y="360" width="160" height="120" as="geometry"/>
                </mxCell>
                <mxCell id="4" value="&lt;div&gt;Image&lt;br&gt;&lt;/div&gt;" style="whiteSpace=wrap;html=1;aspect=fixed;" vertex="1" parent="1">
                    <mxGeometry x="120" y="380" width="80" height="80" as="geometry"/>
                </mxCell>
                <mxCell id="6" value="&lt;span&gt;Container&lt;/span&gt;" style="rounded=0;whiteSpace=wrap;html=1;labelPosition=center;verticalLabelPosition=top;align=center;verticalAlign=bottom;" vertex="1" parent="1">
                    <mxGeometry x="280" y="360" width="160" height="120" as="geometry"/>
                </mxCell>
                <mxCell id="7" value="&lt;span&gt;Image&lt;/span&gt;" style="whiteSpace=wrap;html=1;aspect=fixed;" vertex="1" parent="1">
                    <mxGeometry x="320" y="380" width="80" height="80" as="geometry"/>
                </mxCell>
                <mxCell id="8" value="&lt;span&gt;Container&lt;/span&gt;" style="rounded=0;whiteSpace=wrap;html=1;labelPosition=center;verticalLabelPosition=top;align=center;verticalAlign=bottom;" vertex="1" parent="1">
                    <mxGeometry x="480" y="360" width="160" height="120" as="geometry"/>
                </mxCell>
                <mxCell id="9" value="&lt;span&gt;Image&lt;/span&gt;" style="whiteSpace=wrap;html=1;aspect=fixed;" vertex="1" parent="1">
                    <mxGeometry x="520" y="380" width="80" height="80" as="geometry"/>
                </mxCell>
                <mxCell id="12" value="Container" style="rounded=0;whiteSpace=wrap;html=1;" vertex="1" parent="1">
                    <mxGeometry x="380" y="520" width="160" height="120" as="geometry"/>
                </mxCell>
                <mxCell id="13" value="Image" style="whiteSpace=wrap;html=1;aspect=fixed;" vertex="1" parent="1">
                    <mxGeometry x="200" y="540" width="80" height="80" as="geometry"/>
                </mxCell>
                <mxCell id="15" value="" style="shape=flexArrow;endArrow=classic;html=1;exitX=0;exitY=0.5;exitDx=0;exitDy=0;" edge="1" parent="1" source="12" target="13">
                    <mxGeometry width="50" height="50" relative="1" as="geometry">
                        <mxPoint x="290" y="500" as="sourcePoint"/>
                        <mxPoint x="340" y="450" as="targetPoint"/>
                    </mxGeometry>
                </mxCell>
            </root>
        </mxGraphModel>
    </diagram>
</mxfile>